<?xml version="1.0" encoding="UTF-8"?>
<svg version="1.1" xmlns="http://www.w3.org/2000/svg" width="96" height="96">
<path d="M0 0 C1.28753174 0.00607269 1.28753174 0.00607269 2.60107422 0.01226807 C3.92147705 0.00939789 3.92147705 0.00939789 5.26855469 0.00646973 C7.13135056 0.00510755 8.99415591 0.00880625 10.85693359 0.01715088 C13.71457158 0.02785 16.57158088 0.01725675 19.42919922 0.00445557 C21.23649228 0.00577716 23.04378495 0.00833954 24.85107422 0.01226807 C25.70942871 0.0082196 26.5677832 0.00417114 27.45214844 0 C33.49615677 0.04797562 33.49615677 0.04797562 35.72607422 2.27789307 C35.92613724 5.2675141 36.00580344 8.16251656 35.99169922 11.15289307 C35.9945694 12.4732959 35.9945694 12.4732959 35.99749756 13.82037354 C35.99885973 15.68316941 35.99516103 17.54597476 35.98681641 19.40875244 C35.97611729 22.26639043 35.98671053 25.12339972 35.99951172 27.98101807 C35.99819013 29.78831113 35.99562775 31.59560379 35.99169922 33.40289307 C35.99574768 34.26124756 35.99979614 35.11960205 36.00396729 36.00396729 C35.95599167 42.04797562 35.95599167 42.04797562 33.72607422 44.27789307 C30.73645318 44.47795609 27.84145072 44.55762229 24.85107422 44.54351807 C23.53067139 44.54638824 23.53067139 44.54638824 22.18359375 44.54931641 C20.32079788 44.55067858 18.45799252 44.54697988 16.59521484 44.53863525 C13.73757686 44.52793613 10.88056756 44.53852938 8.02294922 44.55133057 C6.21565616 44.55000898 4.40836349 44.5474466 2.60107422 44.54351807 C1.74271973 44.54756653 0.88436523 44.55161499 0 44.55578613 C-6.04400833 44.50781051 -6.04400833 44.50781051 -8.27392578 42.27789307 C-8.47398881 39.28827203 -8.55365501 36.39326957 -8.53955078 33.40289307 C-8.54146423 32.52262451 -8.54337769 31.64235596 -8.54534912 30.7354126 C-8.5467113 28.87261672 -8.5430126 27.00981137 -8.53466797 25.14703369 C-8.52396885 22.28939571 -8.5345621 19.43238641 -8.54736328 16.57476807 C-8.54604169 14.76747501 -8.54347931 12.96018234 -8.53955078 11.15289307 C-8.54359924 10.29453857 -8.54764771 9.43618408 -8.55181885 8.55181885 C-8.49313377 1.15862421 -7.39319464 0.05868508 0 0 Z " fill="#515151" transform="translate(34.27392578125,25.72210693359375)"/>
</svg>
